<svg xmlns="http://www.w3.org/2000/svg" viewBox="0 0 1120 220" role="img" aria-labelledby="title-install-pre-work-11-obsidian">
  <title id="title-install-pre-work-11-obsidian">Install pre-work: 11 · Obsidian</title>
  <defs>
    <marker id="arrow" viewBox="0 0 8 8" refX="7" refY="4" markerWidth="6" markerHeight="6" orient="auto-start-reverse">
      <path d="M0 0 8 4 0 8Z" fill="#0A0A0A"/>
    </marker>
    <marker id="arrow-red" viewBox="0 0 8 8" refX="7" refY="4" markerWidth="6" markerHeight="6" orient="auto-start-reverse">
      <path d="M0 0 8 4 0 8Z" fill="#E31C23"/>
    </marker>
    <style>
      text { font-family: system-ui, "Inter", "Helvetica Neue", Arial, sans-serif; fill: #0A0A0A; }
      .micro { font-size: 8px; font-weight: 650; letter-spacing: 1.65px; }
      .tiny { font-size: 7px; font-weight: 650; letter-spacing: 1px; }
      .railtext { font-size: 7.1px; font-weight: 650; }
      .title { font-size: 21px; font-weight: 680; letter-spacing: -0.25px; }
      .purpose { font-size: 11.5px; font-weight: 430; fill: #4A4A4A; }
      .caption { font-size: 8.5px; font-weight: 650; letter-spacing: 1.15px; }
      .body { font-size: 9.5px; font-weight: 520; }
      .muted { fill: #6B6B6B; }
      .white { fill: #FFFFFF; }
      .red { fill: #E31C23; }
      .gold { fill: #A58650; }
      .line { fill: none; stroke: #0A0A0A; stroke-width: 1.35; vector-effect: non-scaling-stroke; }
      .hair { fill: none; stroke: #D0D0D0; stroke-width: 1; vector-effect: non-scaling-stroke; }
      .redline { fill: none; stroke: #E31C23; stroke-width: 1.4; vector-effect: non-scaling-stroke; }
      .goldline { fill: none; stroke: #A58650; stroke-width: 1.35; vector-effect: non-scaling-stroke; }
      .dash { stroke-dasharray: 5 4; }
    </style>
  </defs>
  <rect width="1120" height="220" fill="#FFFFFF"/>
  <rect x="0" y="0" width="1120" height="56" fill="#FAFAF8"/>
  <text x="24" y="13" class="micro muted">B0 · PRE-WORK · GETTING SET UP</text>
  <text x="1096" y="13" class="micro muted" text-anchor="end">STAGE 13 OF 15</text>
  <path d="M55 37H993" class="hair"/>
  <rect x="24" y="25" width="62" height="24" rx="2" fill="#FFFFFF" stroke="#D0D0D0" stroke-width="1"/>
  <circle cx="31" cy="37" r="2.6" fill="#E31C23"/>
  <text x="58" y="40" class="railtext" text-anchor="middle">BYB</text>
  <rect x="91" y="25" width="62" height="24" rx="2" fill="#FFFFFF" stroke="#D0D0D0" stroke-width="1"/>
  <circle cx="98" cy="37" r="2.6" fill="#E31C23"/>
  <text x="125" y="40" class="railtext" text-anchor="middle">0 Base</text>
  <rect x="158" y="25" width="62" height="24" rx="2" fill="#FFFFFF" stroke="#D0D0D0" stroke-width="1"/>
  <circle cx="165" cy="37" r="2.6" fill="#E31C23"/>
  <text x="192" y="40" class="railtext" text-anchor="middle">1 Term</text>
  <rect x="225" y="25" width="62" height="24" rx="2" fill="#FFFFFF" stroke="#D0D0D0" stroke-width="1"/>
  <circle cx="232" cy="37" r="2.6" fill="#E31C23"/>
  <text x="259" y="40" class="railtext" text-anchor="middle">2 Installers</text>
  <rect x="292" y="25" width="62" height="24" rx="2" fill="#FFFFFF" stroke="#D0D0D0" stroke-width="1"/>
  <circle cx="299" cy="37" r="2.6" fill="#E31C23"/>
  <text x="326" y="40" class="railtext" text-anchor="middle">3 Git + repo</text>
  <rect x="359" y="25" width="62" height="24" rx="2" fill="#FFFFFF" stroke="#D0D0D0" stroke-width="1"/>
  <circle cx="366" cy="37" r="2.6" fill="#E31C23"/>
  <text x="393" y="40" class="railtext" text-anchor="middle">4 Runtime</text>
  <rect x="426" y="25" width="62" height="24" rx="2" fill="#FFFFFF" stroke="#D0D0D0" stroke-width="1"/>
  <circle cx="433" cy="37" r="2.6" fill="#E31C23"/>
  <text x="460" y="40" class="railtext" text-anchor="middle">5 Keys</text>
  <rect x="493" y="25" width="62" height="24" rx="2" fill="#FFFFFF" stroke="#D0D0D0" stroke-width="1"/>
  <circle cx="500" cy="37" r="2.6" fill="#E31C23"/>
  <text x="527" y="40" class="railtext" text-anchor="middle">6 Smoke</text>
  <rect x="560" y="25" width="62" height="24" rx="2" fill="#FFFFFF" stroke="#D0D0D0" stroke-width="1"/>
  <circle cx="567" cy="37" r="2.6" fill="#E31C23"/>
  <text x="594" y="40" class="railtext" text-anchor="middle">7 Codex</text>
  <rect x="627" y="25" width="62" height="24" rx="2" fill="#FFFFFF" stroke="#D0D0D0" stroke-width="1"/>
  <circle cx="634" cy="37" r="2.6" fill="#E31C23"/>
  <text x="661" y="40" class="railtext" text-anchor="middle">8 OpenCode</text>
  <rect x="694" y="25" width="62" height="24" rx="2" fill="#FFFFFF" stroke="#D0D0D0" stroke-width="1"/>
  <circle cx="701" cy="37" r="2.6" fill="#E31C23"/>
  <text x="728" y="40" class="railtext" text-anchor="middle">9 Pi</text>
  <rect x="761" y="25" width="62" height="24" rx="2" fill="#FFFFFF" stroke="#D0D0D0" stroke-width="1"/>
  <circle cx="768" cy="37" r="2.6" fill="#E31C23"/>
  <text x="795" y="40" class="railtext" text-anchor="middle">10 goose</text>
  <rect x="828" y="25" width="62" height="24" rx="2" fill="#E31C23" stroke="#E31C23" stroke-width="1.4"/>
  <text x="859" y="40" class="railtext white" text-anchor="middle">11 Obsidian</text>
  <rect x="895" y="25" width="62" height="24" rx="2" fill="#FFFFFF" stroke="#D0D0D0" stroke-width="1"/>
  <text x="926" y="40" class="railtext muted" text-anchor="middle">12 n8n</text>
  <rect x="962" y="25" width="62" height="24" rx="2" fill="#FFFFFF" stroke="#D0D0D0" stroke-width="1"/>
  <text x="993" y="40" class="railtext muted" text-anchor="middle">13 Files</text>
  <path d="M0 56H1120" class="hair"/>
  <text x="24" y="76" class="micro red">INSTALL CHECKLIST</text>
  <text x="24" y="103" class="title">Open Obsidian</text>
  <text x="24" y="123" class="purpose">Install Obsidian and open the local vault you will use in class.</text>
  <path d="M480 69V151" class="hair"/>
  <text x="512" y="76" class="micro muted">WHAT THIS LOOKS LIKE</text>
  <g aria-label="Obsidian vault diamond and note graph">
    <path d="M626 72L704 115 626 158 548 115Z" fill="#FAFAF8" stroke="#1A1A1A"/>
    <path d="M626 84L682 115 626 146 570 115Z" fill="#FFFFFF" stroke="#D0D0D0"/>
    <text x="626" y="112" class="micro muted" text-anchor="middle">LOCAL</text>
    <text x="626" y="128" class="caption" text-anchor="middle">VAULT</text>
    <path d="M704 115H780M805 88L882 115 805 143M882 115L984 86M882 115L984 145M984 86L1052 115M984 145L1052 115" class="hair"/>
    <circle cx="805" cy="88" r="8" fill="#FFFFFF" stroke="#1A1A1A"/>
    <circle cx="805" cy="143" r="8" fill="#FFFFFF" stroke="#1A1A1A"/>
    <circle cx="882" cy="115" r="9" fill="#E31C23"/>
    <circle cx="984" cy="86" r="8" fill="#FFFFFF" stroke="#1A1A1A"/>
    <circle cx="984" cy="145" r="8" fill="#FFFFFF" stroke="#1A1A1A"/>
    <circle cx="1052" cy="115" r="8" fill="#0A0A0A"/>
    <text x="930" y="73" class="tiny muted" text-anchor="middle">NOTE GRAPH</text>
  </g>
  <rect x="0" y="164" width="1120" height="56" fill="#FAFAF8"/>
  <text x="24" y="175" class="micro muted">IN THIS SECTION</text>
  <rect x="24.00" y="182" width="532.00" height="25" rx="2" fill="#FFFFFF" stroke="#D0D0D0"/>
  <rect x="24.00" y="182" width="25" height="25" rx="2" fill="#0A0A0A"/>
  <text x="36.50" y="198.3" class="caption white" text-anchor="middle">01</text>
  <text x="58.00" y="198.2" class="caption">INSTALL</text>
  <rect x="564.00" y="182" width="532.00" height="25" rx="2" fill="#FFFFFF" stroke="#D0D0D0"/>
  <rect x="564.00" y="182" width="25" height="25" rx="2" fill="#0A0A0A"/>
  <text x="576.50" y="198.3" class="caption white" text-anchor="middle">02</text>
  <text x="598.00" y="198.2" class="caption">OPEN VAULT</text>
</svg>
