<svg xmlns="http://www.w3.org/2000/svg" viewBox="0 0 1120 220" role="img" aria-labelledby="title-install-pre-work-12-n8n">
  <title id="title-install-pre-work-12-n8n">Install pre-work: 12 · n8n</title>
  <defs>
    <marker id="arrow" viewBox="0 0 8 8" refX="7" refY="4" markerWidth="6" markerHeight="6" orient="auto-start-reverse">
      <path d="M0 0 8 4 0 8Z" fill="#0A0A0A"/>
    </marker>
    <marker id="arrow-red" viewBox="0 0 8 8" refX="7" refY="4" markerWidth="6" markerHeight="6" orient="auto-start-reverse">
      <path d="M0 0 8 4 0 8Z" fill="#E31C23"/>
    </marker>
    <style>
      text { font-family: system-ui, "Inter", "Helvetica Neue", Arial, sans-serif; fill: #0A0A0A; }
      .micro { font-size: 8px; font-weight: 650; letter-spacing: 1.65px; }
      .tiny { font-size: 7px; font-weight: 650; letter-spacing: 1px; }
      .railtext { font-size: 7.1px; font-weight: 650; }
      .title { font-size: 21px; font-weight: 680; letter-spacing: -0.25px; }
      .purpose { font-size: 11.5px; font-weight: 430; fill: #4A4A4A; }
      .caption { font-size: 8.5px; font-weight: 650; letter-spacing: 1.15px; }
      .body { font-size: 9.5px; font-weight: 520; }
      .muted { fill: #6B6B6B; }
      .white { fill: #FFFFFF; }
      .red { fill: #E31C23; }
      .gold { fill: #A58650; }
      .line { fill: none; stroke: #0A0A0A; stroke-width: 1.35; vector-effect: non-scaling-stroke; }
      .hair { fill: none; stroke: #D0D0D0; stroke-width: 1; vector-effect: non-scaling-stroke; }
      .redline { fill: none; stroke: #E31C23; stroke-width: 1.4; vector-effect: non-scaling-stroke; }
      .goldline { fill: none; stroke: #A58650; stroke-width: 1.35; vector-effect: non-scaling-stroke; }
      .dash { stroke-dasharray: 5 4; }
    </style>
  </defs>
  <rect width="1120" height="220" fill="#FFFFFF"/>
  <rect x="0" y="0" width="1120" height="56" fill="#FAFAF8"/>
  <text x="24" y="13" class="micro muted">PRE-WORK · GETTING SET UP</text>
  <text x="1096" y="13" class="micro muted" text-anchor="end">STAGE 14 OF 17</text>
  <path d="M53 37H1061" class="hair"/>
  <rect x="24" y="25" width="58" height="24" rx="2" fill="#FFFFFF" stroke="#D0D0D0" stroke-width="1"/>
  <circle cx="31" cy="37" r="2.6" fill="#E31C23"/>
  <text x="56" y="40" class="railtext" text-anchor="middle">BYB</text>
  <rect x="87" y="25" width="58" height="24" rx="2" fill="#FFFFFF" stroke="#D0D0D0" stroke-width="1"/>
  <circle cx="94" cy="37" r="2.6" fill="#E31C23"/>
  <text x="119" y="40" class="railtext" text-anchor="middle">0 Base</text>
  <rect x="150" y="25" width="58" height="24" rx="2" fill="#FFFFFF" stroke="#D0D0D0" stroke-width="1"/>
  <circle cx="157" cy="37" r="2.6" fill="#E31C23"/>
  <text x="182" y="40" class="railtext" text-anchor="middle">1 Term</text>
  <rect x="213" y="25" width="58" height="24" rx="2" fill="#FFFFFF" stroke="#D0D0D0" stroke-width="1"/>
  <circle cx="220" cy="37" r="2.6" fill="#E31C23"/>
  <text x="245" y="40" class="railtext" text-anchor="middle">2 winget</text>
  <rect x="276" y="25" width="58" height="24" rx="2" fill="#FFFFFF" stroke="#D0D0D0" stroke-width="1"/>
  <circle cx="283" cy="37" r="2.6" fill="#E31C23"/>
  <text x="308" y="40" class="railtext" text-anchor="middle">3 Git</text>
  <rect x="339" y="25" width="58" height="24" rx="2" fill="#FFFFFF" stroke="#D0D0D0" stroke-width="1"/>
  <circle cx="346" cy="37" r="2.6" fill="#E31C23"/>
  <text x="371" y="40" class="railtext" text-anchor="middle">4 Runtime</text>
  <rect x="402" y="25" width="58" height="24" rx="2" fill="#FFFFFF" stroke="#D0D0D0" stroke-width="1"/>
  <circle cx="409" cy="37" r="2.6" fill="#E31C23"/>
  <text x="434" y="40" class="railtext" text-anchor="middle">5 Keys</text>
  <rect x="465" y="25" width="58" height="24" rx="2" fill="#FFFFFF" stroke="#D0D0D0" stroke-width="1"/>
  <circle cx="472" cy="37" r="2.6" fill="#E31C23"/>
  <text x="497" y="40" class="railtext" text-anchor="middle">6 Smoke</text>
  <rect x="528" y="25" width="58" height="24" rx="2" fill="#FFFFFF" stroke="#D0D0D0" stroke-width="1"/>
  <circle cx="535" cy="37" r="2.6" fill="#E31C23"/>
  <text x="560" y="40" class="railtext" text-anchor="middle">7 Codex</text>
  <rect x="591" y="25" width="58" height="24" rx="2" fill="#FFFFFF" stroke="#D0D0D0" stroke-width="1"/>
  <circle cx="598" cy="37" r="2.6" fill="#E31C23"/>
  <text x="623" y="40" class="railtext" text-anchor="middle">8 OpenCode</text>
  <rect x="654" y="25" width="58" height="24" rx="2" fill="#FFFFFF" stroke="#D0D0D0" stroke-width="1"/>
  <circle cx="661" cy="37" r="2.6" fill="#E31C23"/>
  <text x="686" y="40" class="railtext" text-anchor="middle">9 Pi</text>
  <rect x="717" y="25" width="58" height="24" rx="2" fill="#FFFFFF" stroke="#D0D0D0" stroke-width="1"/>
  <circle cx="724" cy="37" r="2.6" fill="#E31C23"/>
  <text x="749" y="40" class="railtext" text-anchor="middle">10 goose</text>
  <rect x="780" y="25" width="58" height="24" rx="2" fill="#FFFFFF" stroke="#D0D0D0" stroke-width="1"/>
  <circle cx="787" cy="37" r="2.6" fill="#E31C23"/>
  <text x="812" y="40" class="railtext" text-anchor="middle">11 Obsidian</text>
  <rect x="843" y="25" width="58" height="24" rx="2" fill="#E31C23" stroke="#E31C23" stroke-width="1.4"/>
  <text x="872" y="40" class="railtext white" text-anchor="middle">12 n8n</text>
  <rect x="906" y="25" width="58" height="24" rx="2" fill="#FFFFFF" stroke="#D0D0D0" stroke-width="1"/>
  <text x="935" y="40" class="railtext muted" text-anchor="middle">13 Repo</text>
  <rect x="969" y="25" width="58" height="24" rx="2" fill="#FFFFFF" stroke="#A58650" stroke-width="1.4"/>
  <text x="998" y="40" class="railtext gold" text-anchor="middle">14 Claude*</text>
  <rect x="1032" y="25" width="58" height="24" rx="2" fill="#FFFFFF" stroke="#D0D0D0" stroke-width="1"/>
  <text x="1061" y="40" class="railtext muted" text-anchor="middle">15 Gate</text>
  <path d="M0 56H1120" class="hair"/>
  <text x="24" y="76" class="micro red">INSTALL CHECKLIST</text>
  <text x="24" y="103" class="title">Start n8n once</text>
  <text x="24" y="123" class="purpose">Install a compatible n8n, start it locally, open the page, then stop it cleanly.</text>
  <path d="M480 69V151" class="hair"/>
  <text x="512" y="76" class="micro muted">WHAT THIS LOOKS LIKE</text>
  <g aria-label="Local n8n node workflow">
    <path d="M565 116H1054" class="hair"/>
    <rect x="552" y="94" width="110" height="44" rx="2" fill="#FFFFFF" stroke="#1A1A1A"/>
    <circle cx="571" cy="116" r="6" fill="#E31C23"/>
    <text x="615" y="113" class="micro muted" text-anchor="middle">NODE</text>
    <text x="615" y="128" class="caption" text-anchor="middle">CHECK</text>
    <path d="M662 116H711" class="redline" marker-end="url(#arrow-red)"/>
    <rect x="728" y="82" width="135" height="68" rx="2" fill="#0A0A0A"/>
    <text x="795.5" y="108" class="micro white" text-anchor="middle">N8N</text>
    <text x="795.5" y="128" class="caption white" text-anchor="middle">LOCAL EDITOR</text>
    <path d="M863 116H912" class="redline" marker-end="url(#arrow-red)"/>
    <rect x="929" y="94" width="131" height="44" rx="2" fill="#FFFFFF" stroke="#D0D0D0"/>
    <circle cx="947" cy="116" r="6" fill="#0A0A0A"/>
    <text x="1002" y="113" class="micro muted" text-anchor="middle">LIFECYCLE</text>
    <text x="1002" y="128" class="caption" text-anchor="middle">START · STOP</text>
    <circle cx="711" cy="116" r="3" fill="#E31C23"/>
    <circle cx="912" cy="116" r="3" fill="#E31C23"/>
  </g>
  <rect x="0" y="164" width="1120" height="56" fill="#FAFAF8"/>
  <text x="24" y="175" class="micro muted">IN THIS SECTION</text>
  <rect x="24.00" y="182" width="262.00" height="25" rx="2" fill="#FFFFFF" stroke="#D0D0D0"/>
  <rect x="24.00" y="182" width="25" height="25" rx="2" fill="#0A0A0A"/>
  <text x="36.50" y="198.3" class="caption white" text-anchor="middle">01</text>
  <text x="58.00" y="198.2" class="caption">INSTALL</text>
  <rect x="294.00" y="182" width="262.00" height="25" rx="2" fill="#FFFFFF" stroke="#D0D0D0"/>
  <rect x="294.00" y="182" width="25" height="25" rx="2" fill="#0A0A0A"/>
  <text x="306.50" y="198.3" class="caption white" text-anchor="middle">02</text>
  <text x="328.00" y="198.2" class="caption">START</text>
  <rect x="564.00" y="182" width="262.00" height="25" rx="2" fill="#FFFFFF" stroke="#D0D0D0"/>
  <rect x="564.00" y="182" width="25" height="25" rx="2" fill="#0A0A0A"/>
  <text x="576.50" y="198.3" class="caption white" text-anchor="middle">03</text>
  <text x="598.00" y="198.2" class="caption">OPEN PAGE</text>
  <rect x="834.00" y="182" width="262.00" height="25" rx="2" fill="#FFFFFF" stroke="#D0D0D0"/>
  <rect x="834.00" y="182" width="25" height="25" rx="2" fill="#0A0A0A"/>
  <text x="846.50" y="198.3" class="caption white" text-anchor="middle">04</text>
  <text x="868.00" y="198.2" class="caption">STOP</text>
</svg>
