<svg xmlns="http://www.w3.org/2000/svg" viewBox="0 0 1120 220" role="img" aria-labelledby="title-install-pre-work-6-your-smoke-folder">
  <title id="title-install-pre-work-6-your-smoke-folder">Install pre-work: 6 · Your smoke folder</title>
  <defs>
    <marker id="arrow" viewBox="0 0 8 8" refX="7" refY="4" markerWidth="6" markerHeight="6" orient="auto-start-reverse">
      <path d="M0 0 8 4 0 8Z" fill="#0A0A0A"/>
    </marker>
    <marker id="arrow-red" viewBox="0 0 8 8" refX="7" refY="4" markerWidth="6" markerHeight="6" orient="auto-start-reverse">
      <path d="M0 0 8 4 0 8Z" fill="#E31C23"/>
    </marker>
    <style>
      text { font-family: system-ui, "Inter", "Helvetica Neue", Arial, sans-serif; fill: #0A0A0A; }
      .micro { font-size: 8px; font-weight: 650; letter-spacing: 1.65px; }
      .tiny { font-size: 7px; font-weight: 650; letter-spacing: 1px; }
      .railtext { font-size: 7.1px; font-weight: 650; }
      .title { font-size: 21px; font-weight: 680; letter-spacing: -0.25px; }
      .purpose { font-size: 11.5px; font-weight: 430; fill: #4A4A4A; }
      .caption { font-size: 8.5px; font-weight: 650; letter-spacing: 1.15px; }
      .body { font-size: 9.5px; font-weight: 520; }
      .muted { fill: #6B6B6B; }
      .white { fill: #FFFFFF; }
      .red { fill: #E31C23; }
      .gold { fill: #A58650; }
      .line { fill: none; stroke: #0A0A0A; stroke-width: 1.35; vector-effect: non-scaling-stroke; }
      .hair { fill: none; stroke: #D0D0D0; stroke-width: 1; vector-effect: non-scaling-stroke; }
      .redline { fill: none; stroke: #E31C23; stroke-width: 1.4; vector-effect: non-scaling-stroke; }
      .goldline { fill: none; stroke: #A58650; stroke-width: 1.35; vector-effect: non-scaling-stroke; }
      .dash { stroke-dasharray: 5 4; }
    </style>
  </defs>
  <rect width="1120" height="220" fill="#FFFFFF"/>
  <rect x="0" y="0" width="1120" height="56" fill="#FAFAF8"/>
  <text x="24" y="13" class="micro muted">PRE-WORK · GETTING SET UP</text>
  <text x="1096" y="13" class="micro muted" text-anchor="end">STAGE 08 OF 17</text>
  <path d="M53 37H1061" class="hair"/>
  <rect x="24" y="25" width="58" height="24" rx="2" fill="#FFFFFF" stroke="#D0D0D0" stroke-width="1"/>
  <circle cx="31" cy="37" r="2.6" fill="#E31C23"/>
  <text x="56" y="40" class="railtext" text-anchor="middle">BYB</text>
  <rect x="87" y="25" width="58" height="24" rx="2" fill="#FFFFFF" stroke="#D0D0D0" stroke-width="1"/>
  <circle cx="94" cy="37" r="2.6" fill="#E31C23"/>
  <text x="119" y="40" class="railtext" text-anchor="middle">0 Base</text>
  <rect x="150" y="25" width="58" height="24" rx="2" fill="#FFFFFF" stroke="#D0D0D0" stroke-width="1"/>
  <circle cx="157" cy="37" r="2.6" fill="#E31C23"/>
  <text x="182" y="40" class="railtext" text-anchor="middle">1 Term</text>
  <rect x="213" y="25" width="58" height="24" rx="2" fill="#FFFFFF" stroke="#D0D0D0" stroke-width="1"/>
  <circle cx="220" cy="37" r="2.6" fill="#E31C23"/>
  <text x="245" y="40" class="railtext" text-anchor="middle">2 winget</text>
  <rect x="276" y="25" width="58" height="24" rx="2" fill="#FFFFFF" stroke="#D0D0D0" stroke-width="1"/>
  <circle cx="283" cy="37" r="2.6" fill="#E31C23"/>
  <text x="308" y="40" class="railtext" text-anchor="middle">3 Git</text>
  <rect x="339" y="25" width="58" height="24" rx="2" fill="#FFFFFF" stroke="#D0D0D0" stroke-width="1"/>
  <circle cx="346" cy="37" r="2.6" fill="#E31C23"/>
  <text x="371" y="40" class="railtext" text-anchor="middle">4 Runtime</text>
  <rect x="402" y="25" width="58" height="24" rx="2" fill="#FFFFFF" stroke="#D0D0D0" stroke-width="1"/>
  <circle cx="409" cy="37" r="2.6" fill="#E31C23"/>
  <text x="434" y="40" class="railtext" text-anchor="middle">5 Keys</text>
  <rect x="465" y="25" width="58" height="24" rx="2" fill="#E31C23" stroke="#E31C23" stroke-width="1.4"/>
  <text x="494" y="40" class="railtext white" text-anchor="middle">6 Smoke</text>
  <rect x="528" y="25" width="58" height="24" rx="2" fill="#FFFFFF" stroke="#D0D0D0" stroke-width="1"/>
  <text x="557" y="40" class="railtext muted" text-anchor="middle">7 Codex</text>
  <rect x="591" y="25" width="58" height="24" rx="2" fill="#FFFFFF" stroke="#D0D0D0" stroke-width="1"/>
  <text x="620" y="40" class="railtext muted" text-anchor="middle">8 OpenCode</text>
  <rect x="654" y="25" width="58" height="24" rx="2" fill="#FFFFFF" stroke="#D0D0D0" stroke-width="1"/>
  <text x="683" y="40" class="railtext muted" text-anchor="middle">9 Pi</text>
  <rect x="717" y="25" width="58" height="24" rx="2" fill="#FFFFFF" stroke="#D0D0D0" stroke-width="1"/>
  <text x="746" y="40" class="railtext muted" text-anchor="middle">10 goose</text>
  <rect x="780" y="25" width="58" height="24" rx="2" fill="#FFFFFF" stroke="#D0D0D0" stroke-width="1"/>
  <text x="809" y="40" class="railtext muted" text-anchor="middle">11 Obsidian</text>
  <rect x="843" y="25" width="58" height="24" rx="2" fill="#FFFFFF" stroke="#D0D0D0" stroke-width="1"/>
  <text x="872" y="40" class="railtext muted" text-anchor="middle">12 n8n</text>
  <rect x="906" y="25" width="58" height="24" rx="2" fill="#FFFFFF" stroke="#D0D0D0" stroke-width="1"/>
  <text x="935" y="40" class="railtext muted" text-anchor="middle">13 Repo</text>
  <rect x="969" y="25" width="58" height="24" rx="2" fill="#FFFFFF" stroke="#A58650" stroke-width="1.4"/>
  <text x="998" y="40" class="railtext gold" text-anchor="middle">14 Claude*</text>
  <rect x="1032" y="25" width="58" height="24" rx="2" fill="#FFFFFF" stroke="#D0D0D0" stroke-width="1"/>
  <text x="1061" y="40" class="railtext muted" text-anchor="middle">15 Gate</text>
  <path d="M0 56H1120" class="hair"/>
  <text x="24" y="76" class="micro red">INSTALL CHECKLIST</text>
  <text x="24" y="103" class="title">Make a smoke folder</text>
  <text x="24" y="123" class="purpose">One shared folder where every tool drops a proof file you can see in Explorer.</text>
  <path d="M480 69V151" class="hair"/>
  <text x="512" y="76" class="micro muted">WHAT THIS LOOKS LIKE</text>
  <g aria-label="Shared smoke folder with four proof-file slots">
    <path d="M564 90H715L733 105H1059V149H564Z" fill="#FAFAF8" stroke="#1A1A1A"/>
    <text x="595" y="115" class="micro muted">PREWORK-SMOKE</text>
    <rect x="742" y="111" width="68" height="26" fill="#FFFFFF" stroke="#D0D0D0"/>
    <rect x="823" y="111" width="68" height="26" fill="#FFFFFF" stroke="#D0D0D0"/>
    <rect x="904" y="111" width="68" height="26" fill="#FFFFFF" stroke="#D0D0D0"/>
    <rect x="985" y="111" width="61" height="26" fill="#FFFFFF" stroke="#D0D0D0"/>
    <text x="776" y="127" class="tiny muted" text-anchor="middle">CODEX</text>
    <text x="857" y="127" class="tiny muted" text-anchor="middle">OPEN</text>
    <text x="938" y="127" class="tiny muted" text-anchor="middle">PI</text>
    <text x="1015.5" y="127" class="tiny muted" text-anchor="middle">GOOSE</text>
    <circle cx="776" cy="145" r="3" fill="#E31C23"/>
    <circle cx="857" cy="145" r="3" fill="#E31C23"/>
    <circle cx="938" cy="145" r="3" fill="#E31C23"/>
    <circle cx="1015.5" cy="145" r="3" fill="#E31C23"/>
    <text x="679" y="137" class="caption" text-anchor="middle">ONE BAY</text>
  </g>
  <rect x="0" y="164" width="1120" height="56" fill="#FAFAF8"/>
  <text x="24" y="175" class="micro muted">IN THIS SECTION</text>
  <rect x="24.00" y="182" width="532.00" height="25" rx="2" fill="#FFFFFF" stroke="#D0D0D0"/>
  <rect x="24.00" y="182" width="25" height="25" rx="2" fill="#0A0A0A"/>
  <text x="36.50" y="198.3" class="caption white" text-anchor="middle">01</text>
  <text x="58.00" y="198.2" class="caption">CREATE FOLDER</text>
  <rect x="564.00" y="182" width="532.00" height="25" rx="2" fill="#FFFFFF" stroke="#D0D0D0"/>
  <rect x="564.00" y="182" width="25" height="25" rx="2" fill="#0A0A0A"/>
  <text x="576.50" y="198.3" class="caption white" text-anchor="middle">02</text>
  <text x="598.00" y="198.2" class="caption">WHY FILES MATTER</text>
</svg>
