<svg xmlns="http://www.w3.org/2000/svg" viewBox="0 0 1120 220" role="img" aria-labelledby="title-p8-concept-failure-layers">
  <title id="title-p8-concept-failure-layers">Concept: failure-layer attribution — model, instructions, tests, environment, brief, with one probe question per layer</title>
  <defs>
    <marker id="arrow" viewBox="0 0 8 8" refX="7" refY="4" markerWidth="6" markerHeight="6" orient="auto-start-reverse">
      <path d="M0 0 8 4 0 8Z" fill="#0A0A0A"/>
    </marker>
    <marker id="arrow-red" viewBox="0 0 8 8" refX="7" refY="4" markerWidth="6" markerHeight="6" orient="auto-start-reverse">
      <path d="M0 0 8 4 0 8Z" fill="#E31C23"/>
    </marker>
    <style>
      text { font-family: system-ui, "Inter", "Helvetica Neue", Arial, sans-serif; fill: #0A0A0A; }
      .micro { font-size: 8px; font-weight: 650; letter-spacing: 1.65px; }
      .tiny { font-size: 7px; font-weight: 650; letter-spacing: 1px; }
      .railtext { font-size: 7.1px; font-weight: 650; }
      .title { font-size: 21px; font-weight: 680; letter-spacing: -0.25px; }
      .purpose { font-size: 11.5px; font-weight: 430; fill: #4A4A4A; }
      .caption { font-size: 8.5px; font-weight: 650; letter-spacing: 1.15px; }
      .body { font-size: 9.5px; font-weight: 520; }
      .muted { fill: #6B6B6B; }
      .white { fill: #FFFFFF; }
      .red { fill: #E31C23; }
      .gold { fill: #A58650; }
      .line { fill: none; stroke: #0A0A0A; stroke-width: 1.35; vector-effect: non-scaling-stroke; }
      .hair { fill: none; stroke: #D0D0D0; stroke-width: 1; vector-effect: non-scaling-stroke; }
      .redline { fill: none; stroke: #E31C23; stroke-width: 1.4; vector-effect: non-scaling-stroke; }
      .goldline { fill: none; stroke: #A58650; stroke-width: 1.35; vector-effect: non-scaling-stroke; }
      .dash { stroke-dasharray: 5 4; }
    </style>
  </defs>
  <rect width="1120" height="220" fill="#FFFFFF"/>
  <rect x="0" y="0" width="1120" height="56" fill="#FAFAF8"/>
  <text x="24" y="13" class="micro muted">P8 · OPERATOR-GOVERNED OPEN MODEL</text>
  <text x="1096" y="13" class="micro muted" text-anchor="end">ANY STAGE</text>
  <path d="M88 37H1026" class="hair"/>
  <rect x="24" y="25" width="128" height="24" rx="2" fill="#FFFFFF" stroke="#D0D0D0" stroke-width="1"/>
  <text x="88" y="40" class="railtext muted" text-anchor="middle">1 Brief</text>
  <rect x="158" y="25" width="128" height="24" rx="2" fill="#FFFFFF" stroke="#D0D0D0" stroke-width="1"/>
  <text x="222" y="40" class="railtext muted" text-anchor="middle">2 Policy</text>
  <rect x="292" y="25" width="128" height="24" rx="2" fill="#FFFFFF" stroke="#D0D0D0" stroke-width="1"/>
  <text x="356" y="40" class="railtext muted" text-anchor="middle">3 Re-point</text>
  <rect x="426" y="25" width="128" height="24" rx="2" fill="#FFFFFF" stroke="#D0D0D0" stroke-width="1"/>
  <text x="490" y="40" class="railtext muted" text-anchor="middle">4 Cold run</text>
  <rect x="560" y="25" width="128" height="24" rx="2" fill="#FFFFFF" stroke="#D0D0D0" stroke-width="1"/>
  <text x="624" y="40" class="railtext muted" text-anchor="middle">5 Matrix</text>
  <rect x="694" y="25" width="128" height="24" rx="2" fill="#FFFFFF" stroke="#D0D0D0" stroke-width="1"/>
  <text x="758" y="40" class="railtext muted" text-anchor="middle">6 Refuse</text>
  <rect x="828" y="25" width="128" height="24" rx="2" fill="#FFFFFF" stroke="#D0D0D0" stroke-width="1"/>
  <text x="892" y="40" class="railtext muted" text-anchor="middle">7 Defend</text>
  <rect x="962" y="25" width="128" height="24" rx="2" fill="#FFFFFF" stroke="#D0D0D0" stroke-width="1"/>
  <text x="1026" y="40" class="railtext muted" text-anchor="middle">8 Seal</text>
  <path d="M0 56H1120" class="hair"/>

  <text x="24" y="76" class="micro red">CONCEPT · WHERE DID IT BREAK</text>
  <text x="24" y="103" class="title">Five layers, five fixes</text>
  <text x="24" y="123" class="purpose">A degrade is a location, not a verdict — the fix is different at every layer.</text>
  <text x="24" y="141" class="body muted">Ask one probe per layer before you write anything in the layer column.</text>
  <path d="M480 69V151" class="hair"/>
  <text x="512" y="76" class="micro muted">THE SHAPE OF IT</text>
  <g aria-label="Five layer bars with one probe question each">
    <rect x="512" y="82" width="118" height="13" rx="2" fill="#0A0A0A"/>
    <text x="571" y="91.5" class="tiny white" text-anchor="middle">MODEL</text>
    <text x="644" y="92" class="body">Fails even with your walls ported and loaded?</text>
    <rect x="512" y="98" width="118" height="13" rx="2" fill="#0A0A0A"/>
    <text x="571" y="107.5" class="tiny white" text-anchor="middle">INSTRUCTIONS</text>
    <text x="644" y="108" class="body">Did AGENTS.md and skills make the trip?</text>
    <rect x="512" y="114" width="118" height="13" rx="2" fill="#0A0A0A"/>
    <text x="571" y="123.5" class="tiny white" text-anchor="middle">TESTS</text>
    <text x="644" y="124" class="body">Is the check asserting one vendor's habits?</text>
    <rect x="512" y="130" width="118" height="13" rx="2" fill="#0A0A0A"/>
    <text x="571" y="139.5" class="tiny white" text-anchor="middle">ENVIRONMENT</text>
    <text x="644" y="140" class="body">Endpoint, config, tool surface — what changed?</text>
    <rect x="512" y="146" width="118" height="13" rx="2" fill="#0A0A0A"/>
    <text x="571" y="155.5" class="tiny white" text-anchor="middle">BRIEF</text>
    <text x="644" y="156" class="body">Did a bound quietly assume the old model?</text>
    <path d="M994 100H1000M1000 100V157M994 157H1000" class="redline"/>
    <text x="1008" y="122" class="tiny red">YOURS TO</text>
    <text x="1008" y="136" class="tiny red">PORT + FIX</text>
  </g>
  <rect x="0" y="164" width="1120" height="56" fill="#FAFAF8"/>
  <text x="24" y="175" class="micro muted">IN PRACTICE</text>
  <rect x="24" y="182" width="172" height="25" rx="2" fill="#FFFFFF" stroke="#D0D0D0"/>
  <rect x="24" y="182" width="25" height="25" rx="2" fill="#0A0A0A"/>
  <text x="36.5" y="198.3" class="caption white" text-anchor="middle">01</text>
  <text x="58" y="198.2" class="caption">REPRO THE FAIL</text>
  <rect x="204" y="182" width="172" height="25" rx="2" fill="#FFFFFF" stroke="#D0D0D0"/>
  <rect x="204" y="182" width="25" height="25" rx="2" fill="#0A0A0A"/>
  <text x="216.5" y="198.3" class="caption white" text-anchor="middle">02</text>
  <text x="238" y="198.2" class="caption">PROBE ENV FIRST</text>
  <rect x="384" y="182" width="172" height="25" rx="2" fill="#FFFFFF" stroke="#D0D0D0"/>
  <rect x="384" y="182" width="25" height="25" rx="2" fill="#0A0A0A"/>
  <text x="396.5" y="198.3" class="caption white" text-anchor="middle">03</text>
  <text x="418" y="198.2" class="caption">PROBE WALLS</text>
  <rect x="564" y="182" width="172" height="25" rx="2" fill="#FFFFFF" stroke="#D0D0D0"/>
  <rect x="564" y="182" width="25" height="25" rx="2" fill="#0A0A0A"/>
  <text x="576.5" y="198.3" class="caption white" text-anchor="middle">04</text>
  <text x="598" y="198.2" class="caption">PROBE TESTS</text>
  <rect x="744" y="182" width="172" height="25" rx="2" fill="#FFFFFF" stroke="#D0D0D0"/>
  <rect x="744" y="182" width="25" height="25" rx="2" fill="#0A0A0A"/>
  <text x="756.5" y="198.3" class="caption white" text-anchor="middle">05</text>
  <text x="778" y="198.2" class="caption">THEN THE MODEL</text>
  <rect x="924" y="182" width="172" height="25" rx="2" fill="#FFFFFF" stroke="#D0D0D0"/>
  <rect x="924" y="182" width="25" height="25" rx="2" fill="#0A0A0A"/>
  <text x="936.5" y="198.3" class="caption white" text-anchor="middle">06</text>
  <text x="958" y="198.2" class="caption">NAME THE FIX</text>
</svg>
