<svg xmlns="http://www.w3.org/2000/svg" viewBox="0 0 1120 220" role="img" aria-labelledby="title-p3-stage-dispatch">
  <title id="title-p3-stage-dispatch">Dispatch stage: the frozen BRIEF-v1 goes verbatim to the Codex app and OpenCode, each saving a raw output with run identity declared</title>
  <defs>
    <marker id="arrow" viewBox="0 0 8 8" refX="7" refY="4" markerWidth="6" markerHeight="6" orient="auto-start-reverse">
      <path d="M0 0 8 4 0 8Z" fill="#0A0A0A"/>
    </marker>
    <marker id="arrow-red" viewBox="0 0 8 8" refX="7" refY="4" markerWidth="6" markerHeight="6" orient="auto-start-reverse">
      <path d="M0 0 8 4 0 8Z" fill="#E31C23"/>
    </marker>
    <style>
      text { font-family: system-ui, "Inter", "Helvetica Neue", Arial, sans-serif; fill: #0A0A0A; }
      .micro { font-size: 8px; font-weight: 650; letter-spacing: 1.65px; }
      .tiny { font-size: 7px; font-weight: 650; letter-spacing: 1px; }
      .railtext { font-size: 7.1px; font-weight: 650; }
      .title { font-size: 21px; font-weight: 680; letter-spacing: -0.25px; }
      .purpose { font-size: 11.5px; font-weight: 430; fill: #4A4A4A; }
      .caption { font-size: 8.5px; font-weight: 650; letter-spacing: 1.15px; }
      .body { font-size: 9.5px; font-weight: 520; }
      .muted { fill: #6B6B6B; }
      .white { fill: #FFFFFF; }
      .red { fill: #E31C23; }
      .gold { fill: #A58650; }
      .line { fill: none; stroke: #0A0A0A; stroke-width: 1.35; vector-effect: non-scaling-stroke; }
      .hair { fill: none; stroke: #D0D0D0; stroke-width: 1; vector-effect: non-scaling-stroke; }
      .redline { fill: none; stroke: #E31C23; stroke-width: 1.4; vector-effect: non-scaling-stroke; }
      .goldline { fill: none; stroke: #A58650; stroke-width: 1.35; vector-effect: non-scaling-stroke; }
      .dash { stroke-dasharray: 5 4; }
    </style>
  </defs>
  <rect width="1120" height="220" fill="#FFFFFF"/>
  <rect x="0" y="0" width="1120" height="56" fill="#FAFAF8"/>
  <text x="24" y="13" class="micro muted">P3 · TWIN-ENGINE INTEL DESK</text>
  <text x="1096" y="13" class="micro muted" text-anchor="end">STAGE 03 OF 06</text>
  <path d="M110.5 37H1005.5" class="hair"/>
  <rect x="24" y="25" width="173" height="24" rx="2" fill="#FFFFFF" stroke="#D0D0D0" stroke-width="1"/>
  <circle cx="31" cy="37" r="2.6" fill="#E31C23"/>
  <text x="113.5" y="40" class="railtext" text-anchor="middle">1 Frame</text>
  <rect x="203" y="25" width="173" height="24" rx="2" fill="#FFFFFF" stroke="#D0D0D0" stroke-width="1"/>
  <circle cx="210" cy="37" r="2.6" fill="#E31C23"/>
  <text x="292.5" y="40" class="railtext" text-anchor="middle">2 Load brief</text>
  <rect x="382" y="25" width="173" height="24" rx="2" fill="#E31C23" stroke="#E31C23" stroke-width="1.4"/>
  <text x="468.5" y="40" class="railtext white" text-anchor="middle">3 Dispatch</text>
  <rect x="561" y="25" width="173" height="24" rx="2" fill="#FFFFFF" stroke="#D0D0D0" stroke-width="1"/>
  <text x="647.5" y="40" class="railtext muted" text-anchor="middle">4 Compare</text>
  <rect x="740" y="25" width="173" height="24" rx="2" fill="#FFFFFF" stroke="#D0D0D0" stroke-width="1"/>
  <text x="826.5" y="40" class="railtext muted" text-anchor="middle">5 Adjudicate</text>
  <rect x="919" y="25" width="173" height="24" rx="2" fill="#FFFFFF" stroke="#D0D0D0" stroke-width="1"/>
  <text x="1005.5" y="40" class="railtext muted" text-anchor="middle">6 Close</text>
  <path d="M0 56H1120" class="hair"/>
  <text x="24" y="76" class="micro red">STAGE 03 · DISPATCH</text>
  <text x="24" y="103" class="title">Same brief, both engines</text>
  <text x="24" y="123" class="purpose">Run BRIEF-v1 verbatim on each engine from the clean folder.</text>
  <text x="24" y="139" class="body muted">Model id, version, folder, and live files written down on both sides.</text>
  <path d="M480 69V151" class="hair"/>
  <text x="512" y="76" class="micro muted">WHAT THIS LOOKS LIKE</text>
  <g aria-label="One frozen brief dispatched to two engines, each producing a raw output file">
    <rect x="512" y="96" width="132" height="36" rx="2" fill="#FFFFFF" stroke="#1A1A1A"/>
    <text x="578" y="111" class="caption" text-anchor="middle">BRIEF-V1</text>
    <text x="578" y="124" class="tiny muted" text-anchor="middle">FROZEN · VERBATIM</text>
    <path d="M646 105L686 90" class="line" marker-end="url(#arrow)"/>
    <path d="M646 123L686 130" class="line" marker-end="url(#arrow)"/>
    <rect x="692" y="74" width="150" height="26" rx="2" fill="#FFFFFF" stroke="#1A1A1A"/>
    <text x="767" y="90" class="caption" text-anchor="middle">CODEX APP</text>
    <path d="M842 87H886" class="line" marker-end="url(#arrow)"/>
    <rect x="890" y="74" width="186" height="26" rx="2" fill="#FFFFFF" stroke="#D0D0D0"/>
    <text x="983" y="90" class="caption" text-anchor="middle">OUTPUT_CODEX.MD</text>
    <rect x="692" y="120" width="150" height="26" rx="2" fill="#FFFFFF" stroke="#1A1A1A"/>
    <text x="767" y="136" class="caption" text-anchor="middle">OPENCODE · GROK</text>
    <path d="M842 133H886" class="line" marker-end="url(#arrow)"/>
    <rect x="890" y="120" width="186" height="26" rx="2" fill="#FFFFFF" stroke="#D0D0D0"/>
    <text x="983" y="136" class="caption" text-anchor="middle">OUTPUT_OPENCODE.MD</text>
    <path d="M692 150H1076" class="redline"/>
    <text x="884" y="160" class="tiny red" text-anchor="middle">RUN IDENTITY DECLARED ON BOTH SIDES</text>
  </g>
  <rect x="0" y="164" width="1120" height="56" fill="#FAFAF8"/>
  <text x="24" y="175" class="micro muted">IN THIS STAGE</text>
  <rect x="24.00" y="182" width="172.00" height="25" rx="2" fill="#FFFFFF" stroke="#D0D0D0"/>
  <rect x="24.00" y="182" width="25" height="25" rx="2" fill="#0A0A0A"/>
  <text x="36.50" y="198.3" class="caption white" text-anchor="middle">01</text>
  <text x="58.00" y="198.2" class="caption">CLEAN FOLDER</text>
  <rect x="204.00" y="182" width="172.00" height="25" rx="2" fill="#FFFFFF" stroke="#D0D0D0"/>
  <rect x="204.00" y="182" width="25" height="25" rx="2" fill="#0A0A0A"/>
  <text x="216.50" y="198.3" class="caption white" text-anchor="middle">02</text>
  <text x="238.00" y="198.2" class="caption">RUN CODEX</text>
  <rect x="384.00" y="182" width="172.00" height="25" rx="2" fill="#FFFFFF" stroke="#D0D0D0"/>
  <rect x="384.00" y="182" width="25" height="25" rx="2" fill="#0A0A0A"/>
  <text x="396.50" y="198.3" class="caption white" text-anchor="middle">03</text>
  <text x="418.00" y="198.2" class="caption">SAVE RAW OUTPUT</text>
  <rect x="564.00" y="182" width="172.00" height="25" rx="2" fill="#FFFFFF" stroke="#D0D0D0"/>
  <rect x="564.00" y="182" width="25" height="25" rx="2" fill="#0A0A0A"/>
  <text x="576.50" y="198.3" class="caption white" text-anchor="middle">04</text>
  <text x="598.00" y="198.2" class="caption">RUN OPENCODE</text>
  <rect x="744.00" y="182" width="172.00" height="25" rx="2" fill="#FFFFFF" stroke="#D0D0D0"/>
  <rect x="744.00" y="182" width="25" height="25" rx="2" fill="#0A0A0A"/>
  <text x="756.50" y="198.3" class="caption white" text-anchor="middle">05</text>
  <text x="778.00" y="198.2" class="caption">SAVE RAW OUTPUT</text>
  <rect x="924.00" y="182" width="172.00" height="25" rx="2" fill="#FFFFFF" stroke="#D0D0D0"/>
  <rect x="924.00" y="182" width="25" height="25" rx="2" fill="#0A0A0A"/>
  <text x="936.50" y="198.3" class="caption white" text-anchor="middle">06</text>
  <text x="958.00" y="198.2" class="caption">DECLARE IDENTITY</text>
</svg>
