<!-- GENERATED from resources/figures; edit the JSON spec, not this plate. -->
<svg xmlns="http://www.w3.org/2000/svg" viewBox="0 0 1120 560" width="1120" height="560" role="img" aria-labelledby="m02-resolved-state-title m02-resolved-state-desc">
  <title id="m02-resolved-state-title">Eight surfaces of resolved state</title>
  <desc id="m02-resolved-state-desc">Direction, Sources, Instructions, Tools, Permissions, State, Feedback, and Decisive evidence are eight surfaces that can load separately. Map each one before you decide what ran.</desc>
  <style>
    text { font-family: Inter, "IBM Plex Sans", "Helvetica Neue", Arial, sans-serif; fill: #0A0A0A; }
    .eyebrow, .step, .micro { font-size: 14px; font-weight: 650; letter-spacing: 1.7px; }
    .eyebrow { fill: #E31C23; }
    .step, .micro { fill: #6B6B6B; }
    .figure-title { font-size: 22px; font-weight: 600; letter-spacing: -0.2px; }
    .label { font-size: 15px; font-weight: 650; }
    .body { font-size: 14px; font-weight: 430; fill: #4A4A4A; }
  </style>
  <rect width="1120" height="560" fill="#FFFFFF" />
  <path d="M 0 0 H 1120" stroke="#0A0A0A" stroke-width="4" />
  <text class="eyebrow" x="36" y="35">STATE</text>
  <text class="figure-title" x="36" y="62" text-anchor="start"><tspan x="36" dy="0">Eight surfaces of resolved state</tspan></text>
  <text class="step" x="36" y="120">01</text>
  <rect x="205" y="94" width="880" height="42" rx="2" fill="#FAFAF8" stroke="#A58650" />
  <text class="label" x="223" y="120">Direction</text>
  <text class="body" x="1067" y="120" text-anchor="end">the request in force</text>
  <text class="step" x="36" y="170">02</text>
  <rect x="205" y="144" width="880" height="42" rx="2" fill="#FFFFFF" stroke="#D0D0D0" />
  <text class="label" x="223" y="170">Sources</text>
  <text class="body" x="1067" y="170" text-anchor="end">what was retrieved</text>
  <text class="step" x="36" y="220">03</text>
  <rect x="205" y="194" width="880" height="42" rx="2" fill="#FFFFFF" stroke="#D0D0D0" />
  <text class="label" x="223" y="220">Instructions</text>
  <text class="body" x="1067" y="220" text-anchor="end">saved rules that loaded</text>
  <text class="step" x="36" y="270">04</text>
  <rect x="205" y="244" width="880" height="42" rx="2" fill="#FFFFFF" stroke="#D0D0D0" />
  <text class="label" x="223" y="270">Tools</text>
  <text class="body" x="1067" y="270" text-anchor="end">what the run can call</text>
  <text class="step" x="36" y="320">05</text>
  <rect x="205" y="294" width="880" height="42" rx="2" fill="#FFFFFF" stroke="#D0D0D0" />
  <text class="label" x="223" y="320">Permissions</text>
  <text class="body" x="1067" y="320" text-anchor="end">what those tools may touch</text>
  <text class="step" x="36" y="370">06</text>
  <rect x="205" y="344" width="880" height="42" rx="2" fill="#FFFFFF" stroke="#D0D0D0" />
  <text class="label" x="223" y="370">State</text>
  <text class="body" x="1067" y="370" text-anchor="end">what persisted from earlier</text>
  <text class="step" x="36" y="420">07</text>
  <rect x="205" y="394" width="880" height="42" rx="2" fill="#FFFFFF" stroke="#D0D0D0" />
  <text class="label" x="223" y="420">Feedback</text>
  <text class="body" x="1067" y="420" text-anchor="end">what the surface showed</text>
  <text class="step" x="36" y="470">08</text>
  <rect x="205" y="444" width="880" height="42" rx="2" fill="#FFFFFF" stroke="#D0D0D0" />
  <text class="label" x="223" y="470">Decisive evidence</text>
  <text class="body" x="1067" y="470" text-anchor="end">what would accept or refuse</text>
</svg>
