<!-- GENERATED from resources/figures; edit the JSON spec, not this plate. -->
<svg xmlns="http://www.w3.org/2000/svg" viewBox="0 0 1120 560" width="1120" height="560" role="img" aria-labelledby="m08-package-title m08-package-desc">
  <title id="m08-package-title">What the package must name</title>
  <desc id="m08-package-desc">The package names purpose, bounds, inputs, saved controls, operation, evidence, limits, stop/restore, and handoff. A missing name is an incomplete package.</desc>
  <style>
    text { font-family: Inter, "IBM Plex Sans", "Helvetica Neue", Arial, sans-serif; fill: #0A0A0A; }
    .eyebrow, .step, .micro { font-size: 14px; font-weight: 650; letter-spacing: 1.7px; }
    .eyebrow { fill: #E31C23; }
    .step, .micro { fill: #6B6B6B; }
    .figure-title { font-size: 22px; font-weight: 600; letter-spacing: -0.2px; }
    .label { font-size: 15px; font-weight: 650; }
    .body { font-size: 14px; font-weight: 430; fill: #4A4A4A; }
  </style>
  <rect width="1120" height="560" fill="#FFFFFF" />
  <path d="M 0 0 H 1120" stroke="#0A0A0A" stroke-width="4" />
  <text class="eyebrow" x="36" y="35">PACKAGE</text>
  <text class="figure-title" x="36" y="62" text-anchor="start"><tspan x="36" dy="0">What the package must name</tspan></text>
  <text class="step" x="36" y="119.55555555555556">01</text>
  <rect x="205" y="94" width="880" height="41.111111111111114" rx="2" fill="#FAFAF8" stroke="#A58650" />
  <text class="label" x="223" y="119.55555555555556">purpose</text>
  <text class="body" x="1067" y="119.55555555555556" text-anchor="end">what the package is for</text>
  <text class="step" x="36" y="168.66666666666669">02</text>
  <rect x="205" y="143.11111111111111" width="880" height="41.111111111111114" rx="2" fill="#FFFFFF" stroke="#D0D0D0" />
  <text class="label" x="223" y="168.66666666666669">bounds</text>
  <text class="body" x="1067" y="168.66666666666669" text-anchor="end">hours, window, audience, class-only</text>
  <text class="step" x="36" y="217.77777777777777">03</text>
  <rect x="205" y="192.22222222222223" width="880" height="41.111111111111114" rx="2" fill="#FFFFFF" stroke="#D0D0D0" />
  <text class="label" x="223" y="217.77777777777777">inputs</text>
  <text class="body" x="1067" y="217.77777777777777" text-anchor="end">the files it needs</text>
  <text class="step" x="36" y="266.8888888888889">04</text>
  <rect x="205" y="241.33333333333334" width="880" height="41.111111111111114" rx="2" fill="#FFFFFF" stroke="#D0D0D0" />
  <text class="label" x="223" y="266.8888888888889">saved controls</text>
  <text class="body" x="1067" y="266.8888888888889" text-anchor="end">the checks that load</text>
  <text class="step" x="36" y="316">05</text>
  <rect x="205" y="290.44444444444446" width="880" height="41.111111111111114" rx="2" fill="#FFFFFF" stroke="#D0D0D0" />
  <text class="label" x="223" y="316">operation</text>
  <text class="body" x="1067" y="316" text-anchor="end">the steps a new operator runs</text>
  <text class="step" x="36" y="365.1111111111111">06</text>
  <rect x="205" y="339.55555555555554" width="880" height="41.111111111111114" rx="2" fill="#FFFFFF" stroke="#D0D0D0" />
  <text class="label" x="223" y="365.1111111111111">evidence</text>
  <text class="body" x="1067" y="365.1111111111111" text-anchor="end">what a pass looks like</text>
  <text class="step" x="36" y="414.22222222222223">07</text>
  <rect x="205" y="388.6666666666667" width="880" height="41.111111111111114" rx="2" fill="#FFFFFF" stroke="#D0D0D0" />
  <text class="label" x="223" y="414.22222222222223">limits</text>
  <text class="body" x="1067" y="414.22222222222223" text-anchor="end">what it will not do</text>
  <text class="step" x="36" y="463.33333333333337">08</text>
  <rect x="205" y="437.7777777777778" width="880" height="41.111111111111114" rx="2" fill="#FFFFFF" stroke="#D0D0D0" />
  <text class="label" x="223" y="463.33333333333337">stop/restore</text>
  <text class="body" x="1067" y="463.33333333333337" text-anchor="end">how to halt and return</text>
  <text class="step" x="36" y="512.4444444444445">09</text>
  <rect x="205" y="486.8888888888889" width="880" height="41.111111111111114" rx="2" fill="#FFFFFF" stroke="#D0D0D0" />
  <text class="label" x="223" y="512.4444444444445">handoff</text>
  <text class="body" x="1067" y="512.4444444444445" text-anchor="end">what the next owner receives</text>
</svg>
