<!-- GENERATED from resources/figures; edit the JSON spec, not this plate. -->
<svg xmlns="http://www.w3.org/2000/svg" viewBox="0 0 1120 280" width="1120" height="280" role="img" aria-labelledby="pw-2-orientation-title pw-2-orientation-desc">
  <title id="pw-2-orientation-title">One symptom, six possible layers</title>
  <desc id="pw-2-orientation-desc">A fault-tree fork from one precise workstation symptom to six distinct diagnostic layers: shell, path, runtime, identity and access, local policy, and tool behavior.</desc>
  <style>
    text { font-family: Inter, "IBM Plex Sans", "Helvetica Neue", Arial, sans-serif; fill: #0A0A0A; }
    .eyebrow, .step, .micro { font-size: 14px; font-weight: 650; letter-spacing: 1.7px; }
    .eyebrow { fill: #E31C23; }
    .step, .micro { fill: #6B6B6B; }
    .figure-title { font-size: 22px; font-weight: 600; letter-spacing: -0.2px; }
    .label { font-size: 15px; font-weight: 650; }
    .body { font-size: 14px; font-weight: 430; fill: #4A4A4A; }
  </style>
  <rect width="1120" height="280" fill="#FFFFFF" />
  <path d="M 0 0 H 1120" stroke="#0A0A0A" stroke-width="4" />
  <text class="eyebrow" x="36" y="35">ORIENTATION</text>
  <text class="figure-title" x="36" y="62" text-anchor="start"><tspan x="36" dy="0">One symptom, six possible layers</tspan></text>
  <defs><marker id="pw-2-orientation-arrow" viewBox="0 0 10 10" refX="8" refY="5" markerWidth="7" markerHeight="7" orient="auto-start-reverse"><path d="M 0 0 L 10 5 L 0 10 z" fill="#E31C23" /></marker></defs>
  <rect x="36" y="119" width="250" height="104" rx="2" fill="#FAFAF8" stroke="#A58650" />
  <text class="label" x="54" y="157" text-anchor="start"><tspan x="54" dy="0">TOP EVENT</tspan></text>
  <text class="body" x="54" y="198" text-anchor="start"><tspan x="54" dy="0">Exact symptom · time ·</tspan><tspan x="54" dy="19">observation point</tspan></text>
  <path d="M 286 171 C 345 171, 345 104.25, 400 104.25" fill="none" stroke="#E31C23" stroke-width="1.8" marker-end="url(#pw-2-orientation-arrow)" />
  <rect x="410" y="96" width="674" height="16.5" rx="2" fill="#FFFFFF" stroke="#D0D0D0" />
  <text class="label" x="426" y="109.25">SHELL</text>
  <text class="body" x="1068" y="109.25" text-anchor="end">Receive · parse</text>
  <path d="M 286 171 C 345 171, 345 129.75, 400 129.75" fill="none" stroke="#E31C23" stroke-width="1.8" marker-end="url(#pw-2-orientation-arrow)" />
  <rect x="410" y="121.5" width="674" height="16.5" rx="2" fill="#FFFFFF" stroke="#D0D0D0" />
  <text class="label" x="426" y="134.75">PATH</text>
  <text class="body" x="1068" y="134.75" text-anchor="end">Resolve name · locate</text>
  <path d="M 286 171 C 345 171, 345 155.25, 400 155.25" fill="none" stroke="#E31C23" stroke-width="1.8" marker-end="url(#pw-2-orientation-arrow)" />
  <rect x="410" y="147" width="674" height="16.5" rx="2" fill="#FFFFFF" stroke="#D0D0D0" />
  <text class="label" x="426" y="160.25">RUNTIME</text>
  <text class="body" x="1068" y="160.25" text-anchor="end">Load · begin</text>
  <path d="M 286 171 C 345 171, 345 180.75, 400 180.75" fill="none" stroke="#E31C23" stroke-width="1.8" marker-end="url(#pw-2-orientation-arrow)" />
  <rect x="410" y="172.5" width="674" height="16.5" rx="2" fill="#FFFFFF" stroke="#D0D0D0" />
  <text class="label" x="426" y="185.75">IDENTITY &amp; ACCESS</text>
  <text class="body" x="1068" y="185.75" text-anchor="end">Authenticate · authorize</text>
  <path d="M 286 171 C 345 171, 345 206.25, 400 206.25" fill="none" stroke="#E31C23" stroke-width="1.8" marker-end="url(#pw-2-orientation-arrow)" />
  <rect x="410" y="198" width="674" height="16.5" rx="2" fill="#FFFFFF" stroke="#D0D0D0" />
  <text class="label" x="426" y="211.25">LOCAL POLICY</text>
  <text class="body" x="1068" y="211.25" text-anchor="end">Managed controls</text>
  <path d="M 286 171 C 345 171, 345 231.75, 400 231.75" fill="none" stroke="#E31C23" stroke-width="1.8" marker-end="url(#pw-2-orientation-arrow)" />
  <rect x="410" y="223.5" width="674" height="16.5" rx="2" fill="#FFFFFF" stroke="#D0D0D0" />
  <text class="label" x="426" y="236.75">TOOL</text>
  <text class="body" x="1068" y="236.75" text-anchor="end">Perform · leave artifact</text>
</svg>
